<mxfile host="app.diagrams.net" modified="2024-03-16T16:14:31.445Z" agent="Mozilla/5.0 (Windows NT 10.0; Win64; x64) AppleWebKit/537.36 (KHTML, like Gecko) Chrome/120.0.0.0 YaBrowser/24.1.0.0 Safari/537.36" version="24.0.7" etag="CFm1195Q2b0BownFQfVn" type="github">
  <diagram name="Страница — 1" id="Ts--UXi0xYGjJKANyuJ5">
    <mxGraphModel>
      <root>
        <mxCell id="0" />
        <mxCell id="1" parent="0" />
      </root>
    </mxGraphModel>
  </diagram>
</mxfile>
